<svg width="48" height="46" viewBox="0 0 48 46" fill="none" xmlns="http://www.w3.org/2000/svg">
<g clip-path="url(#clip0)">
<path d="M24.7833 43.7198C24.7833 43.7198 10.8109 32.4099 4.32275 11.4699C4.32275 11.4699 13.2773 5.32871 24.8032 5.30235H24.8537C36.3483 5.27363 45.3341 11.4699 45.3341 11.4699C38.8462 32.4099 24.8738 43.7198 24.8738 43.7198L24.827 43.7543L24.7833 43.7198Z" fill="#231F20"/>
<path d="M24.7981 45.4247L23.9326 44.7412C23.7851 44.6219 20.2743 41.7576 15.9285 36.2596C11.9308 31.2039 6.45048 22.8672 3.04053 11.8559L2.75513 10.9344L3.55732 10.3841C3.93696 10.123 12.9914 4.00713 24.7999 3.97998H24.9373C36.6773 3.97998 45.7219 10.124 46.1021 10.3862L46.9008 10.9367L46.616 11.8559C43.2047 22.8659 37.7247 31.2039 33.728 36.2596C29.3825 41.7576 25.8716 44.6219 25.7242 44.7412L25.6286 44.8133L24.7981 45.4247ZM5.90987 12.0423C9.2044 22.1569 14.2672 29.8467 17.9898 34.5664C20.965 38.3398 23.568 40.8533 24.8283 41.9946C26.0885 40.8535 28.6915 38.3398 31.667 34.5664C35.3896 29.8451 40.4529 22.1553 43.7477 12.04C41.3385 10.5992 33.8805 6.624 24.932 6.624H24.8031C15.8014 6.64489 8.32649 10.6052 5.90987 12.0423Z" fill="#231F20"/>
<path d="M24.7833 43.7198C24.7833 43.7198 10.8109 32.4099 4.32275 11.4699C4.32275 11.4699 13.2773 5.32871 24.8032 5.30235H24.8537C36.3483 5.27363 45.3341 11.4699 45.3341 11.4699C38.8462 32.4099 24.8738 43.7198 24.8738 43.7198L24.827 43.7543L24.7833 43.7198Z" fill="white"/>
<path d="M24.8113 44.6596L24.3223 44.2735C24.1772 44.1561 20.7175 41.3329 16.4132 35.888C12.4486 30.8722 7.01226 22.6 3.62824 11.6793L3.47363 11.1801L3.90809 10.8823C4.28138 10.6262 13.1825 4.61316 24.8012 4.58653H24.8542C36.4435 4.55677 45.3759 10.6251 45.7505 10.8833L46.1831 11.1815L46.029 11.6793C42.6445 22.601 37.2081 30.872 33.2435 35.888C28.9392 41.3329 25.4793 44.1561 25.3342 44.2735L25.2611 44.3284L24.8113 44.6596ZM5.17888 11.7754C10.9612 29.9452 22.4977 40.7636 24.8288 42.8113C25.8737 41.8976 28.7648 39.2298 32.1271 34.9704C35.9442 30.135 41.155 22.2131 44.4784 11.7738C42.5629 10.5797 34.6117 6.01898 24.932 6.01898H24.8031C15.0672 6.04117 7.10069 10.5839 5.17888 11.7754Z" fill="white"/>
<path d="M24.7833 43.7198C24.7833 43.7198 10.8109 32.4099 4.32275 11.4699C4.32275 11.4699 13.2773 5.32871 24.8032 5.30235H24.8537C36.3483 5.27363 45.3341 11.4699 45.3341 11.4699C38.8462 32.4099 24.8738 43.7198 24.8738 43.7198L24.827 43.7543L24.7833 43.7198Z" fill="#231F20"/>
<path d="M24.8207 44.1017L24.6057 43.9323C24.5705 43.9036 21.0393 41.0227 16.7654 35.6162C12.8241 30.6299 7.41982 22.4065 4.0554 11.5498L3.99609 11.3579L4.16315 11.2433C4.25343 11.1811 13.3221 5.05273 24.8021 5.02637H24.9324C36.3457 5.02637 45.4033 11.1811 45.4938 11.2435L45.6601 11.3584L45.601 11.5498C42.2363 22.407 36.8323 30.6299 32.8907 35.6162C28.6169 41.0227 25.0857 43.9036 25.0505 43.9323L24.8207 44.1017ZM4.65082 11.5847C7.99141 22.2574 13.3097 30.3459 17.1949 35.263C20.9694 40.0404 24.1532 42.8248 24.8283 43.3963C25.482 42.8431 28.6746 40.056 32.4616 35.263C36.3465 30.3456 41.665 22.2566 45.0059 11.5847C43.7269 10.7556 35.3161 5.57773 24.9316 5.57773H24.8029C14.3565 5.60044 5.93326 10.758 4.65082 11.5847Z" fill="#231F20"/>
<path d="M24.7833 43.7198C24.7833 43.7198 10.8109 32.4099 4.32275 11.4699C4.32275 11.4699 13.2773 5.32871 24.8032 5.30235H24.8537C36.3483 5.27363 45.3341 11.4699 45.3341 11.4699C38.8462 32.4099 24.8738 43.7198 24.8738 43.7198L24.827 43.7543L24.7833 43.7198Z" fill="#FFD100"/>
<path d="M45.4225 19.1558C45.3602 19.0819 45.2972 19.0099 45.2335 18.9399L45.7857 19.3114L46.9136 20.0479L46.9149 15.2574L46.216 14.8011L45.1752 14.1006L44.071 13.4203V13.7506C43.5944 13.1125 43.0048 12.4531 42.1883 11.9753L42.1735 11.9673C41.3062 11.5101 40.4656 11.4728 39.8061 11.8628C39.4884 12.0497 39.2271 12.3291 39.0249 12.6833C38.9703 11.4775 38.3365 10.4677 37.336 10.0205L36.3565 9.61431L35.0732 9.14779C34.8305 9.05747 34.6062 8.98359 34.4071 8.9285L33.9176 8.79327V10.0203V10.6105C33.4567 9.23447 32.5655 8.20223 31.4896 7.9477C30.8696 7.82526 30.2802 7.97015 29.7875 8.368C29.4217 8.66326 29.1283 9.08096 28.9186 9.59003V8.76168V7.69551L27.9984 7.57516L27.4209 7.5159L26.861 7.47439L25.8833 7.3872V8.16881V8.56563C25.6069 7.82004 25.0096 7.37153 24.2066 7.36475L23.2358 7.38929C23.1657 7.39242 23.0934 7.39425 23.02 7.39634C22.8773 7.39999 22.7315 7.40417 22.5893 7.41513L21.9409 7.46499L20.95 7.55558V8.63507V8.91101C20.8459 8.59043 20.6805 8.32858 20.4562 8.1367C20.1234 7.85215 19.6837 7.73885 19.1854 7.80907L18.2014 7.98764L17.5678 8.11243L15.9732 8.49331V9.15093V9.90122V10.7557L16.4207 10.6512V11.1995V13.9941L15.9632 14.108L15.2899 10.9904L15.6026 10.916L15.6042 10.2325V9.48352V8.60583L14.2939 8.99507L13.5413 9.25613L13.518 9.14466L13.4949 9.27206L12.6255 9.59238L11.5787 10.0226V11.3919V12.3578L11.8299 12.2442L11.3301 14.8656L11.1667 15.7644L11.0449 15.815L10.7153 15.9894V18.3233L11.782 17.874L12.81 17.4563L14.5409 16.853L16.1766 16.3815L17.5056 16.0732L18.0385 15.9654L18.904 15.8088V15.7952L19.663 15.6782L21.3045 15.4694L22.4289 15.3723L22.9605 15.3389L23.8807 15.325V15.3127H24.5858L25.9842 15.3519L27.911 15.5109L28.9155 15.6268V13.8954C29.3804 15.1634 30.2469 16.0555 31.3247 16.2622C31.4964 16.3024 31.6721 16.3229 31.8486 16.3236C32.2994 16.3255 32.7371 16.174 33.0879 15.8947C33.4408 15.6185 33.7193 15.2261 33.9158 14.7387V15.284V16.0432V16.7123L34.7031 16.9593L35.7759 17.3297C35.8275 17.3495 35.8818 17.3691 35.9347 17.3887C36.0592 17.4344 36.1878 17.4819 36.2966 17.5305L36.8425 17.7746V17.7516L37.4065 17.9821L37.8322 18.1672L39.256 18.8459V17.7524C39.7159 18.5948 40.3468 19.2279 40.9875 19.7542L39.9671 19.219L38.8914 18.6747V23.6939L39.6063 24.0666L40.1093 24.3058L41.6885 25.1114V24.7668C42.1312 25.3803 42.7438 26.0499 43.6577 26.5718C44.3429 26.9895 44.902 27.1305 45.3473 27.1302C45.6518 27.1339 45.952 27.0596 46.2186 26.9146C46.742 26.6274 47.3658 25.9225 47.3658 24.2011C47.3674 22.4397 46.7333 20.7906 45.4225 19.1558ZM36.864 12.5283C36.8644 12.5669 36.8621 12.6056 36.8571 12.6439C36.77 12.619 36.6849 12.5879 36.6024 12.5507L36.4515 12.4868V11.9513L36.5129 11.9803C36.7237 12.0646 36.864 12.1899 36.864 12.5283ZM43.4213 17.4036C42.425 16.6771 41.8611 16.2306 41.8611 15.5041C41.8611 15.3443 41.9016 15.2639 41.9289 15.2488C41.9476 15.2407 41.968 15.2371 41.9885 15.2383C42.0565 15.2383 42.1772 15.2645 42.3538 15.3689C42.9344 15.7137 43.4769 16.5337 43.9688 17.809C43.7821 17.6667 43.5987 17.5318 43.4213 17.4036ZM42.2678 20.7567C43.2653 21.5046 44.0535 22.0949 44.0532 22.9167C44.0532 23.0712 44.0156 23.1488 43.9905 23.1631C43.9479 23.1871 43.797 23.1777 43.5738 23.0503C42.7049 22.5465 42.1592 21.2602 41.7981 20.4092L41.7936 20.3982C41.9535 20.5212 42.1118 20.64 42.2678 20.7567ZM38.5666 14.3084C38.5449 14.2736 38.5216 14.2388 38.4967 14.204C38.5266 14.1835 38.5554 14.1615 38.583 14.138C38.5765 14.1944 38.571 14.251 38.5666 14.3079V14.3084ZM32.1414 12.3688C32.1414 12.9598 31.936 13.3292 31.7604 13.4652C31.6487 13.5527 31.5584 13.5435 31.4872 13.5279C31.0901 13.4496 30.6477 12.7554 30.6474 11.8845C30.6474 11.2493 30.846 10.8648 31.0316 10.7162C31.093 10.6632 31.1715 10.6334 31.2532 10.6322C31.2779 10.6323 31.3026 10.6349 31.3268 10.6398C31.7194 10.7397 32.1409 11.4261 32.1414 12.3688ZM20.9463 13.218L20.8729 13.2232V12.6418C20.8729 12.0383 20.7861 11.6817 20.5404 11.4517C20.815 11.1384 21.0752 10.6437 21.0763 9.8148L21.3958 9.76755V10.3844V12.468V13.1553L20.9457 13.1901L20.9463 13.218ZM18.5151 10.5593V10.2168V10.1907L18.7835 10.1403C18.8199 10.1324 18.8572 10.1293 18.8945 10.1312C18.9133 10.1914 18.9213 10.2544 18.918 10.3173C18.918 10.6669 18.8103 10.7374 18.5148 10.7972L18.5151 10.5593ZM23.8956 9.89286C23.8956 10.2239 23.8246 10.2385 23.4918 10.2456V9.63493L23.5487 9.63154H23.688H23.7007C23.7955 9.62788 23.8378 9.64459 23.8482 9.65451C23.8651 9.6707 23.8964 9.74092 23.8964 9.89286H23.8956ZM25.8486 13.0415V12.3925C25.8486 11.7842 25.7649 11.4284 25.5148 11.1741C25.7837 10.8961 26.0398 10.4432 26.0514 9.65686L26.3455 9.68114V11.4018V12.4432V13.0674L25.8804 13.0386V13.0433L25.8486 13.0415ZM13.4878 14.8781V14.8982L13.267 14.9653L13.2837 14.8716L13.8468 14.6731L13.8624 14.7376L13.4878 14.8781ZM18.801 13.5281L18.5151 13.5741V12.8248H18.523C18.6647 12.7987 18.7083 12.8199 18.7083 12.8199C18.7348 12.8415 18.7989 12.9504 18.7992 13.5012L18.801 13.5281ZM23.4924 13.0269V12.273C23.5532 12.2753 23.6261 12.286 23.661 12.3197C23.7653 12.4199 23.7764 12.7979 23.7775 13.0018L23.4924 13.0269ZM28.4431 13.2561V9.88268L28.7939 9.9268C28.6301 10.4432 28.543 11.0353 28.543 11.6759C28.5408 12.2202 28.6044 12.7627 28.7325 13.2921L28.4431 13.2561ZM34.059 11.1013L34.3555 11.1919V14.529L34.0256 14.4309C34.1773 13.9417 34.2565 13.3738 34.2565 12.7442C34.257 12.1907 34.1904 11.6392 34.0582 11.1013H34.059ZM36.5259 15.2702L36.4523 15.241V14.5883C36.648 14.7321 36.7239 14.9483 36.7414 15.3754L36.5259 15.2702Z" fill="black"/>
<path d="M11.509 13.3423V11.8456V11.2373V10.0542L10.2218 10.6285L7.75173 11.9062L6.55771 12.611L5.21438 13.4138L3.03683 14.8577L2.27144 15.4263L1.532 15.9899L0.634766 16.6567V17.4399V20.0481L1.27837 19.5323L2.11947 22.8496L2.59602 24.7864L3.23909 27.3124L4.12812 26.6947L5.61071 25.7471L5.83442 24.2885L6.06052 22.9997L6.15318 22.4405C6.15768 22.4666 6.16192 22.4909 6.16615 22.5159L6.37795 23.5573L6.71445 25.1023L7.17167 24.8446L8.05751 24.3355L8.49223 24.1089L9.11757 23.803L10.5461 15.9208L10.9885 13.561L11.509 13.3423ZM7.80574 15.2107V15.1736L8.14515 14.9943L7.73982 17.4456L7.49307 16.2784C7.46819 16.1497 7.44012 16.0192 7.41126 15.8868C7.38161 15.7505 7.35143 15.6117 7.32495 15.4736L7.47957 15.3798L7.80574 15.2107ZM4.39234 17.3227V17.2704L4.75849 17.0438L4.46064 18.8613C4.43417 19.0702 4.39578 19.2997 4.35474 19.5281L4.33383 19.4325C4.29994 19.2161 4.25229 18.9976 4.20622 18.7862C4.1763 18.6499 4.14665 18.5141 4.11938 18.3711L3.9473 17.5816L4.07729 17.4905L4.39234 17.3227Z" fill="black"/>
<path d="M46.283 18.6961L47.1617 19.2704V13.8978L46.3547 13.3702L45.3264 12.6784L43.825 11.7542V11.8224C43.4168 11.3506 42.9275 10.8961 42.312 10.5364L42.2876 10.5231C41.3409 10.0239 40.4143 9.98895 39.678 10.4241C39.4976 10.5312 39.3329 10.6622 39.1885 10.8134C38.9703 9.79811 38.3413 8.97316 37.433 8.56826L36.4605 8.16492L35.1559 7.68953C34.9067 7.59789 34.6775 7.52245 34.4747 7.46554L33.6706 7.23946V8.20878C33.148 7.31543 32.4123 6.68575 31.5592 6.48578L31.5367 6.48082C30.8407 6.34298 30.1815 6.50692 29.6306 6.95072C29.4561 7.0929 29.2994 7.25502 29.1638 7.43369V6.25317L28.041 6.10567L27.4586 6.04511L26.8811 6.00151L25.6368 5.8916V6.727C25.2739 6.22237 24.7197 5.93076 24.033 5.9245H24.0219L23.0359 5.9506C22.9687 5.95347 22.8993 5.9553 22.8289 5.95739C22.6841 5.9613 22.5342 5.96548 22.381 5.97749L21.7289 6.02735L20.515 6.13856V6.64476C20.1414 6.37195 19.6726 6.26675 19.15 6.3401L18.1527 6.5205L17.5178 6.64528L15.7254 7.07238V7.08648L14.2222 7.53289L13.3641 7.82841L12.5522 8.12837L11.7547 8.45678V8.44921L11.53 8.5492L11.333 8.63039V8.63692L10.121 9.17757L8.05118 10.2466V10.2276L7.7544 10.4009L7.50633 10.5299V10.5458L6.43198 11.1723L5.086 11.9764L2.90103 13.4258L2.12109 14.0038L1.38429 14.5651L0.388571 15.3057V16.2087V16.8034V17.4109L0.386719 19.3281L1.13357 18.73L1.87963 21.6772L2.35777 23.6142L3.08583 26.4859L4.26475 25.6672L5.83524 24.6624L6.0759 23.101L6.17332 22.5447L6.54397 24.2491L7.29427 23.8231L8.17773 23.3164L8.60345 23.095L9.33918 22.7345L10.4691 16.4951V17.4584L11.8776 16.8648L12.9048 16.4471L14.6175 15.8492L16.2486 15.3793L17.5657 15.0775L18.0836 14.9731L19.1505 14.7789L19.7035 14.686L20.8714 14.5361L22.2557 14.4147L22.782 14.3834L23.939 14.3646V14.3583H24.3925L26.3453 14.4144V14.3928L27.8824 14.522L29.1619 14.6679V13.7169C29.6861 14.539 30.4187 15.1005 31.2799 15.2699C31.4674 15.313 31.6593 15.335 31.8518 15.3357C32.3573 15.3374 32.8479 15.1672 33.2409 14.8538C33.4003 14.7283 33.5441 14.5848 33.6696 14.4262V14.8131V15.6594L34.6303 15.9599L35.6973 16.3306C35.7489 16.3502 35.8032 16.3698 35.8561 16.3896C35.9795 16.4348 36.0957 16.4779 36.1942 16.5217L37.0867 16.9212V16.8846L37.7345 17.1611L38.646 17.5947V19.1049V22.6104L39.4818 23.0446L40.0068 23.295L41.9353 24.2771V24.2337C42.3913 24.7583 42.9329 25.2041 43.5378 25.5529C44.2635 25.9928 44.8652 26.1442 45.3495 26.1442C45.6958 26.1475 46.037 26.0624 46.3401 25.8972C46.9213 25.5777 47.6138 24.8104 47.6144 22.9712C47.6133 21.484 47.1783 20.0787 46.283 18.6961ZM43.3832 15.8425C42.5715 15.2446 42.114 14.8473 42.1079 14.2847C42.1489 14.3026 42.1886 14.3233 42.2267 14.3466C42.5225 14.5215 42.9342 14.9256 43.3832 15.8425ZM43.8068 21.6641C43.7693 21.6484 43.7329 21.6304 43.6977 21.6103C43.1467 21.2905 42.7247 20.5992 42.4004 19.9317C43.2937 20.612 43.7962 21.0678 43.8076 21.6651L43.8068 21.6641ZM39.5014 17.3556C39.5544 17.4252 39.608 17.4937 39.6624 17.561L39.5012 17.4798L39.5014 17.3556ZM31.8952 11.1379C31.8952 11.6078 31.7464 11.9372 31.6085 12.0448C31.5767 12.0709 31.568 12.0673 31.5555 12.0649L31.5344 12.0602C31.2789 12.0098 30.8926 11.4232 30.8929 10.6541C30.8929 10.1393 31.0398 9.79133 31.1841 9.67489C31.2023 9.65709 31.2265 9.64642 31.2521 9.64487C31.258 9.645 31.2638 9.64553 31.2696 9.64644C31.4999 9.71144 31.8952 10.2542 31.8952 11.1379V11.1379ZM20.8581 10.2124C20.8933 10.1631 20.9277 10.1106 20.9611 10.0558V10.3939C20.9326 10.3303 20.8982 10.2696 20.8581 10.2124V10.2124ZM25.9069 11.1956C25.9069 10.6413 25.8349 10.2625 25.6456 9.97929C25.8645 9.69473 26.0551 9.2833 26.1001 8.67895V11.5749L25.9079 11.5605V11.4438L25.9069 11.1956ZM15.8483 9.87774V9.80568L16.1731 9.72919V12.5748L16.1482 12.581L15.5798 9.9417L15.8483 9.87774ZM7.81158 14.2515L7.70939 14.8742C7.69059 14.7828 7.67074 14.6914 7.65062 14.598C7.63288 14.5176 7.61593 14.4387 7.59952 14.3609L7.81158 14.2515ZM4.41831 16.3536L4.32511 16.9279L4.22213 16.4559L4.41831 16.3536ZM10.9483 14.3601L10.8485 14.4124L11.208 12.4985L11.3052 12.4583L11.0886 13.5918L10.9483 14.3601Z" fill="black"/>
<path d="M44.4554 13.7406V13.0918V12.8759L44.9698 13.1926L45.4845 13.539L45.9986 13.8847L46.5281 14.2311V15.1819V16.1478V18.1099L45.9971 17.7633L45.4824 17.4176L44.9677 17.0709L44.4382 16.7386C44.236 16.1768 43.5966 14.4324 42.5514 13.8116C41.9424 13.4511 41.4752 13.6249 41.4754 14.2726C41.4754 15.8593 43.6127 16.364 45.125 18.1666C46.2004 19.5082 46.9809 21.08 46.9809 22.9701C46.9809 25.3058 45.7323 26.1566 43.8597 25.0174C42.3938 24.1807 41.7396 22.9257 41.3023 22.219V22.7242V22.9832V23.2578L40.7881 22.9967L40.2886 22.737L39.7741 22.4916L39.2756 22.2326V18.0658L39.7903 18.3253L40.3055 18.5992L40.835 18.8733L41.3645 19.1477C41.7539 20.0559 42.3321 21.5416 43.3766 22.1478C43.9855 22.4932 44.4372 22.3206 44.4374 21.686C44.4374 20.3598 42.94 19.6526 41.4585 18.4125C40.1183 17.3594 38.9333 16.0327 38.9338 13.5372C38.9338 11.2733 40.2128 10.1343 41.9909 11.0712C43.1767 11.7649 43.8465 12.8605 44.4554 13.7406Z" fill="white"/>
<path d="M45.348 25.8577C44.9104 25.8577 44.3584 25.7172 43.6801 25.305C42.7178 24.7568 42.0916 24.0409 41.6458 23.4021V23.8104L40.1301 23.0369L39.6258 22.7972L38.9334 22.4378V17.5136L39.9466 18.025L41.3342 18.75C41.3021 18.7239 41.2699 18.6978 41.2378 18.6701C39.9329 17.6457 38.5903 16.2287 38.5903 13.5379C38.5903 12.1786 39.0404 11.1325 39.8264 10.6686C40.4722 10.2869 41.2974 10.3245 42.1515 10.773C43.0251 11.2824 43.6187 11.9692 44.1125 12.6482V12.2663L45.15 12.9049L46.1905 13.6045L46.8706 14.0483V18.738L45.8105 18.0459L44.9271 17.4533C45.0859 17.61 45.2403 17.7747 45.3899 17.9533C46.6932 19.5794 47.3244 21.2189 47.3244 22.9714C47.3244 24.6724 46.7118 25.3663 46.1981 25.6488C45.9378 25.7896 45.6449 25.8615 45.348 25.8577V25.8577ZM40.959 21.0137L41.5958 22.0433C41.6384 22.1122 41.6831 22.1866 41.7305 22.2649C42.1501 22.9612 42.7845 24.014 44.0322 24.7252C44.5646 25.0489 45.3062 25.3653 45.8646 25.0578C46.3639 24.7831 46.6389 24.0417 46.6389 22.9693C46.6389 21.3747 46.0565 19.8723 44.8572 18.3759C44.2851 17.6943 43.5965 17.192 42.9886 16.749C41.9931 16.0232 41.1335 15.3964 41.1335 14.2723C41.1335 13.7191 41.4073 13.4836 41.5703 13.3925C41.883 13.2184 42.2942 13.2641 42.7289 13.523C43.4839 13.9715 44.1543 14.9782 44.7219 16.5164L45.1534 16.7868L46.1873 17.482V16.148V15.1821V14.4127L44.7984 13.4852V13.5225L44.7966 14.832L44.1725 13.9303C44.1122 13.8433 44.0512 13.7542 43.9896 13.663C43.4408 12.8589 42.8192 11.9478 41.8163 11.3617C41.3818 11.133 40.7327 10.9205 40.1796 11.2469C39.6059 11.5862 39.2768 12.4216 39.2766 13.5371C39.2766 15.9345 40.4285 17.1695 41.6736 18.1472C42.0278 18.4435 42.3739 18.703 42.7088 18.9542C43.8207 19.7875 44.7815 20.5075 44.7817 21.6851C44.7817 22.2292 44.5138 22.4626 44.3544 22.5534C44.0492 22.727 43.6417 22.6865 43.207 22.4396C42.1276 21.813 41.5251 20.3947 41.1261 19.4559L41.098 19.3896L39.6194 18.6174V19.103V22.0292L39.935 22.1931L40.438 22.4328L40.9601 22.704L40.959 21.0137ZM41.6887 19.0333L41.758 19.1959C42.1218 20.0522 42.6714 21.346 43.5517 21.8569C43.8109 22.0039 43.9631 21.9971 44.0119 21.9692C44.0606 21.9412 44.0963 21.831 44.0963 21.6859C44.0963 20.8437 43.3021 20.2477 42.2942 19.493C42.0959 19.3444 41.8939 19.193 41.6887 19.0333V19.0333ZM41.9889 13.9658C41.961 13.9644 41.9331 13.9699 41.9079 13.9817C41.8528 14.0123 41.8187 14.124 41.8189 14.2733C41.8189 15.0565 42.4808 15.5392 43.3958 16.2068C43.6105 16.3634 43.8345 16.5266 44.0614 16.7028C43.4299 15.009 42.7988 14.3532 42.3754 14.1016C42.1978 13.9966 42.0691 13.9658 41.9889 13.9658V13.9658Z" fill="white"/>
<path d="M34.3006 13.6789L34.4107 13.7115L34.5203 13.7454L34.6307 13.7786L34.7395 13.8123V12.7706V9.67967L34.6305 9.6473L34.5201 9.61362L34.4102 9.57995L34.3 9.54627V9.17217V8.78841V8.42292V8.06396C34.5118 8.12349 34.7311 8.19815 34.9339 8.27281L35.5843 8.5062L36.2197 8.74116L36.8697 9.00692L37.1829 9.14084C38.078 9.54053 38.643 10.4743 38.6432 11.6238C38.6432 12.6733 38.1619 12.7641 37.8225 12.8145C38.2795 13.2322 38.4394 13.4562 38.4399 14.2806V14.5307V14.7803V15.0309V15.2891L38.5411 15.3392L38.6504 15.3893L38.7608 15.4468L38.8715 15.4948V15.8699V16.2448V16.6197V17.0113L38.4328 16.8025L38.0015 16.5936L37.562 16.4015L37.1318 16.2263V15.7613V15.2959V14.8364V14.379C37.1318 13.6794 37.055 13.1714 36.3969 12.8959L36.3113 12.8633L36.2266 12.8294L36.1422 12.7954L36.0659 12.7709V13.8955V14.2783L36.1594 14.3125L36.2605 14.3461L36.3532 14.3793L36.4543 14.4297V14.8035V15.1787V15.9532C36.2859 15.8778 36.0913 15.812 35.9134 15.7444L35.3733 15.5616L34.8327 15.37L34.3006 15.2035V14.8119V14.4289V14.053V13.6789ZM36.6568 10.3963L36.5049 10.3219L36.3534 10.2629L36.2094 10.2052L36.0657 10.1553V10.496V10.8299V11.5217L36.1583 11.5546L36.2605 11.5878L36.3529 11.6293L36.4543 11.6708C36.8265 11.83 37.2486 11.9707 37.2486 11.2969C37.2493 10.7636 36.9708 10.5219 36.6576 10.3963H36.6568Z" fill="white"/>
<path d="M39.2122 17.5478L37.8498 16.8986L37.4222 16.7119L36.7969 16.4574V16.4777L36.3124 16.261C36.2065 16.213 36.0786 16.1663 35.9563 16.1214C35.8999 16.1005 35.8438 16.0799 35.7895 16.059L35.2619 15.8807L34.7175 15.6878L33.959 15.4505V14.8122V13.2239L34.398 13.3544V10.7125V9.92928L33.9585 9.79483V7.61523L34.3945 7.73793C34.5902 7.79302 34.812 7.86585 35.054 7.95487L36.3391 8.42243L37.3187 8.82838C38.3486 9.28837 38.9853 10.3579 38.9853 11.6217C38.9853 12.3903 38.7433 12.7675 38.4341 12.9597C38.6882 13.2873 38.7819 13.6332 38.7822 14.2786V15.075L39.2138 15.28V15.8705V16.2449L39.2122 17.5478ZM37.4736 16.0021L37.6914 16.0908L38.1391 16.2864L38.5286 16.4743V15.7052L38.0986 15.4964L38.0973 15.0304V14.7777V14.5294V14.2783C38.0973 13.5549 37.9837 13.4191 37.59 13.0604L37.0664 12.583L37.7717 12.4785C38.0436 12.4381 38.3012 12.4002 38.3012 11.622C38.3012 10.612 37.8307 9.79875 37.0426 9.44658L36.7341 9.31605L36.0892 9.05211L34.8184 8.5903C34.7588 8.56837 34.7006 8.54748 34.6442 8.52764V9.29855L35.0837 9.42908V14.272L34.6429 14.1373V14.8129V14.957L34.9362 15.0489L36.0246 15.4257L36.1114 15.4583V14.654L35.7236 14.5138V13.5204V13.1453V12.3057L36.5202 12.5814C37.3994 12.9492 37.4733 13.6708 37.4733 14.3788V15.2959V15.7609L37.4736 16.0021ZM36.4085 14.0394L36.508 14.0775L36.7865 14.2156C36.772 13.6805 36.6772 13.4374 36.4087 13.2784V13.5194L36.4085 14.0394ZM36.9216 12.1397C36.691 12.1397 36.4638 12.0428 36.3187 11.981L35.9507 11.8397L35.7241 11.7593V10.4963V9.6784L36.6576 10.0193L36.799 10.0885C37.3176 10.3016 37.5916 10.719 37.5914 11.297C37.5914 11.6552 37.4855 11.9052 37.2766 12.0407C37.1708 12.1076 37.0472 12.142 36.9216 12.1397V12.1397ZM36.409 11.2829L36.5869 11.3591C36.7534 11.4304 36.8427 11.4565 36.8906 11.4635C36.9025 11.4089 36.9079 11.3531 36.9065 11.2972C36.9065 10.9876 36.7971 10.8174 36.5287 10.7096L36.409 10.6522V11.2831V11.2829Z" fill="white"/>
<path d="M28.9282 10.4459C28.9282 8.29659 29.9761 6.80463 31.4121 7.08892C32.8235 7.42177 33.8705 9.34684 33.87 11.5129C33.87 13.729 32.8306 14.9871 31.4113 14.6607C29.9409 14.3777 28.928 12.6453 28.9282 10.4459ZM31.4121 9.03879C30.7698 8.90486 30.2626 9.58701 30.2626 10.6537C30.2626 11.6457 30.7775 12.5451 31.4116 12.6704C32.0205 12.8122 32.5264 12.1206 32.5267 11.1375C32.5267 10.0295 32.0038 9.17976 31.4121 9.03879V9.03879Z" fill="white"/>
<path d="M31.8477 15.051C31.6745 15.0504 31.5019 15.0303 31.3333 14.991C29.7202 14.6806 28.5852 12.8109 28.5854 10.4467C28.5854 8.99441 29.0329 7.80032 29.8126 7.17064C30.2952 6.78088 30.8716 6.6386 31.4792 6.75869C33.0433 7.12731 34.2129 9.17037 34.2124 11.5139C34.2124 12.9432 33.8031 14.0504 33.0605 14.6318C32.7171 14.9049 32.2888 15.0529 31.8477 15.051V15.051ZM28.928 10.4459H29.2706C29.2706 12.4822 30.1774 14.0794 31.4768 14.3292C31.9268 14.4336 32.3107 14.3553 32.6345 14.1013C33.2016 13.6575 33.527 12.714 33.527 11.5129C33.527 9.50661 32.5636 7.70791 31.3322 7.41761C30.9393 7.33929 30.5697 7.43144 30.2467 7.69224C29.6357 8.18565 29.2709 9.21501 29.2706 10.4459H28.928ZM31.5671 13.0265C31.488 13.0264 31.4093 13.0172 31.3325 12.9991C30.5451 12.844 29.9193 11.8126 29.9195 10.6537C29.9195 9.88907 30.1578 9.26017 30.5729 8.92837C30.6978 8.82615 30.8446 8.75323 31.0022 8.71511C31.1598 8.67699 31.3242 8.67466 31.4829 8.70829L31.4924 8.71038C32.2901 8.90043 32.8691 9.92118 32.8691 11.1382C32.8691 11.8572 32.6234 12.478 32.2125 12.7983C32.0299 12.9446 31.8023 13.025 31.5671 13.0265ZM31.2539 9.3599C31.1622 9.36101 31.0739 9.39412 31.0047 9.45336C30.8115 9.60765 30.605 10.0039 30.605 10.6542C30.605 11.5458 31.0653 12.2579 31.4786 12.3396C31.5321 12.3533 31.5882 12.354 31.642 12.3416C31.6958 12.3292 31.7458 12.3041 31.7876 12.2684C32.0282 12.0804 32.1847 11.6369 32.1847 11.138C32.1847 10.1736 31.746 9.47085 31.3375 9.36877C31.31 9.36308 31.282 9.3601 31.2539 9.3599V9.3599Z" fill="white"/>
<path d="M26.2672 8.06341L26.2669 7.68043L26.2674 7.30607L26.2672 6.9385V6.57275L26.8242 6.62209L27.3908 6.66386L27.9568 6.72208L28.5313 6.79779V7.15544L28.531 7.53111L28.5313 7.90521L28.5316 8.27983L28.4039 8.26443L28.2951 8.24694L28.1681 8.23049L28.0571 8.22266L28.0577 9.2468L28.0571 10.2879L28.0574 11.3201L28.0571 12.3626L28.1673 12.3706L28.2943 12.3884L28.4032 12.4041L28.5302 12.421L28.5308 12.8037L28.5305 13.1953V13.5707V13.9696L27.9555 13.9041L27.39 13.8537L26.8234 13.8034L26.2661 13.7621L26.2664 13.3614V12.9875L26.2666 12.5957V12.2122L26.376 12.2203L26.4941 12.2294L26.6045 12.2372L26.7307 12.2545V11.2131L26.7315 10.1715L26.731 9.1301L26.7318 8.10518L26.6053 8.08873L26.4949 8.08064L26.3762 8.07176L26.2672 8.06341Z" fill="white"/>
<path d="M28.8734 14.3483L27.9159 14.2389L25.9234 14.0745V11.8471L26.3875 11.8818V8.40971L25.9231 8.37395V6.20166L26.8537 6.28389L27.4149 6.32514L27.9908 6.3844L28.8727 6.50005V8.65955L28.3998 8.6029V9.24511V10.2865V11.3187V12.0606L28.8724 12.1246V12.8018V13.5696L28.8734 14.3483ZM26.6088 13.4479L26.8489 13.4659L28.1878 13.5892V12.7141L28.031 12.6987L27.7133 12.6749V7.85861L28.1872 7.89255V7.09266L27.91 7.05611L27.3541 6.99894L26.6085 6.94151V7.3049V7.74871L26.7753 7.76881L27.0734 7.80745V9.12894V10.17V12.6407L26.6093 12.5773L26.6088 13.4479Z" fill="white"/>
<path d="M21.144 12.3275L21.2542 12.3181L21.3725 12.3017L21.4739 12.2941H21.5925V10.2116V9.17022V8.13695L21.4737 8.14556L21.3725 8.15339L21.2544 8.16201L21.144 8.17845V6.68727L21.7855 6.62906L22.4281 6.57919C22.6399 6.56275 22.8596 6.56249 23.0614 6.55309L23.7126 6.5369L24.0253 6.52881C24.9117 6.53716 25.4782 7.22036 25.4782 8.38652C25.4782 9.45191 25.0041 9.77798 24.6671 9.98604C25.123 10.186 25.276 10.3442 25.2747 11.1773V11.9343V12.1928L25.3848 12.2014H25.5966L25.7141 12.21V13.7503L25.2744 13.7344L24.836 13.7265L24.4052 13.7197H23.9742V11.8537C23.9742 11.1371 23.898 10.6625 23.239 10.6789H22.9181V11.4462V11.8208V12.204H23.2054L23.3076 12.1957V12.5786V13.7364L22.7574 13.7451L22.2173 13.7782L21.6849 13.82L21.144 13.8698V12.3296V12.3275ZM23.5003 8.03696H23.3489L23.1958 8.04531H22.9176V9.41954H23.0015H23.104H23.2046L23.307 9.41223C23.6692 9.40414 24.0925 9.36315 24.0925 8.67943C24.0936 8.14582 23.814 8.02861 23.5016 8.03696H23.5003Z" fill="white"/>
<path d="M20.8008 14.2393V12.7103V12.018L21.2509 11.9778V10.2117V9.17005V8.50434L20.8024 8.57169V7.79582V6.37904L21.7555 6.29263L22.4025 6.24251C22.5518 6.23102 22.7011 6.22684 22.8452 6.22319C22.9143 6.22136 22.9823 6.21953 23.0485 6.21666L24.0175 6.19238C25.1186 6.20256 25.822 7.06433 25.822 8.38765C25.822 9.21991 25.5464 9.68303 25.2674 9.95923C25.5342 10.2062 25.6187 10.5526 25.6184 11.1786V11.6783V11.8665L26.0576 11.8992V14.1031L24.3987 14.0574H23.6511V14.0683L22.7639 14.0824L22.2394 14.1148L20.8008 14.2393ZM21.4867 12.6322V12.7106V13.4982L22.1902 13.4405L22.7358 13.4068L22.9646 13.4032V12.5416H22.5762V11.8203V11.4449V11.0617V10.3386L23.0715 10.3406H23.2389C23.5478 10.3339 23.7991 10.4174 23.9801 10.5915C24.2907 10.8904 24.3166 11.3789 24.3166 11.8538V13.2452V13.3807H24.4053L25.3722 13.4008V12.5406L24.9325 12.5059L24.9338 11.428V11.1786C24.9338 10.4738 24.8488 10.4351 24.5298 10.2952L23.9404 10.0391L24.4858 9.70209C24.7601 9.53266 25.1355 9.30084 25.136 8.38869C25.136 7.93523 25.0278 6.87845 24.0225 6.86905L23.0694 6.89333C23.0053 6.89594 22.9341 6.89777 22.8618 6.89986C22.7266 6.90351 22.5865 6.90717 22.4547 6.91735L21.4859 6.99567V7.80496L21.9344 7.77259V9.16926V10.2109V12.6315L21.4867 12.6322ZM23.2606 11.0155V11.4447V11.8201V11.8592L23.6312 11.829C23.6312 11.6225 23.6262 11.1948 23.5015 11.0747C23.4594 11.034 23.3773 11.0131 23.2606 11.0155ZM22.5759 9.76239V7.71019L23.4965 7.70053C23.7752 7.69505 24.004 7.7705 24.1676 7.92792C24.3452 8.09839 24.4353 8.35136 24.435 8.68003C24.435 9.71201 23.6124 9.74334 23.3252 9.75038L23.1049 9.75952H22.999L22.5759 9.76239ZM23.2611 8.38164V9.07763L23.2997 9.07502C23.6497 9.06693 23.7498 9.04891 23.7498 8.67977C23.7498 8.48476 23.7038 8.42524 23.6895 8.41166C23.663 8.38556 23.5979 8.37303 23.51 8.37616L23.2611 8.38164Z" fill="white"/>
<path d="M16.3567 13.1856L16.466 13.1595L16.5849 13.1334L16.6863 13.1091L16.8046 13.083V8.9368L16.6868 8.97021L16.5852 8.99632L16.4666 9.02086L16.357 9.04697V8.67052V8.29642V7.92179V7.56388L16.9984 7.41325L17.6415 7.25661L18.2751 7.1313L18.9253 7.01513L19.2377 6.95691C20.1246 6.83186 20.6911 7.42265 20.6911 8.58176C20.6911 9.65628 20.2173 10.0468 19.8794 10.3061C20.3356 10.4387 20.4884 10.5804 20.4884 11.4135V12.4316L20.5985 12.4055L20.7078 12.3972L20.8095 12.3805L20.9281 12.3713V12.747V13.903L20.4891 13.9609L20.0494 14.0186L19.6189 14.0687L19.1874 14.1356V12.27C19.1874 11.5618 19.1111 11.0952 18.4519 11.22L18.3677 11.2284L18.2835 11.2448L18.2078 11.2613L18.1316 11.278V11.6531V12.0361V12.4107V12.7942L18.2163 12.778L18.3174 12.7608L18.4188 12.7441L18.5202 12.7279V13.102V13.4858V13.8612V14.2604L17.9701 14.3603L17.4297 14.4689L16.8968 14.594L16.3567 14.7188V13.1856V13.1856ZM18.7129 8.53868L18.5615 8.56348L18.4082 8.59611L18.2653 8.62222L18.13 8.64833V9.33074V9.68108V10.0223L18.2144 10.0056L18.3153 9.98913L18.4172 9.97269L18.5186 9.95624C18.8813 9.88889 19.3039 9.7735 19.3047 9.0903C19.3052 8.55408 19.0261 8.47994 18.714 8.5379L18.7129 8.53868Z" fill="white"/>
<path d="M16.014 15.1443V14.3266V12.9169L16.4617 12.8159V11.0117V9.36858L16.0148 9.473L16.0132 8.66972V7.91969V7.29575L17.5577 6.92635L18.2064 6.79791L19.173 6.62248C19.6739 6.55173 20.102 6.66138 20.4249 6.93758C20.8221 7.27696 21.0325 7.84529 21.0325 8.57939C21.0325 9.42392 20.7593 9.91472 20.48 10.2241C20.7416 10.4436 20.8292 10.7914 20.8292 11.4122V12.0387L21.2698 12.005L21.2679 13.5035V14.1995L19.6561 14.4052L18.8616 14.5274V14.5412L18.0311 14.6919L17.4979 14.7994L16.014 15.1443ZM16.6989 13.455V14.2922L17.3502 14.1397L18.177 13.9787V13.8604V13.4858V13.1289L17.7883 13.203V12.4107V12.0351V11.6529V11.0046L18.402 10.884C18.7221 10.8263 18.9815 10.877 19.174 11.0339C19.502 11.301 19.5293 11.791 19.529 12.269V13.7398L19.5645 13.7343L20.5843 13.6064V12.7538L20.1456 12.8548V12.1711V11.4119C20.1456 10.7331 20.0832 10.7159 19.7829 10.6287L19.1428 10.4423L19.6696 10.0382C19.9561 9.81813 20.3484 9.51608 20.349 8.58017C20.349 8.0557 20.2166 7.65393 19.9783 7.44926C19.8076 7.30306 19.5748 7.24955 19.2873 7.29001L17.7089 7.58475L16.6999 7.82858V8.61437L17.1482 8.48724V11.0109V13.3573L16.6989 13.455ZM18.4727 11.5568V12.0353V12.3924L18.8433 12.3327V12.2692C18.8433 11.8515 18.8079 11.6127 18.7374 11.5552C18.7163 11.5377 18.645 11.5262 18.5153 11.551L18.4727 11.5568ZM17.7883 10.4303V9.67767V8.98612V8.3648L18.6538 8.20425C18.945 8.15203 19.1833 8.1972 19.3612 8.34209C19.5513 8.49742 19.6476 8.74778 19.6482 9.08637C19.6482 10.0868 18.8741 10.2306 18.5831 10.2849L18.1974 10.352L17.7883 10.4303ZM18.4732 8.92582V9.61789C18.8174 9.55289 18.9625 9.48345 18.963 9.08637C18.963 8.91512 18.9262 8.86551 18.9233 8.86186C18.9233 8.86343 18.9101 8.85794 18.8788 8.85794C18.8447 8.85846 18.8106 8.86204 18.7772 8.86865L18.4732 8.92582Z" fill="white"/>
<path d="M11.1006 16.5166V16.125V15.7498V15.3582V14.9841L11.1932 14.9337L11.2954 14.893L11.3966 14.851L11.5064 14.8173L11.7092 13.7015L11.921 12.5933L12.1328 11.4854L12.3446 10.3774L12.243 10.4192L12.15 10.4607L12.0553 10.4931L11.9631 10.5351V9.77804V9.41099V9.0455L12.7725 8.71213L13.5842 8.41217L14.4033 8.12944L15.2156 7.8877V8.25449V9.38619L15.1134 9.41047L15.021 9.43657L14.9288 9.46947L14.8354 9.49401L15.0472 10.4599L15.2492 11.4175L15.4597 12.3834L15.6715 13.3574L15.7647 13.3243L15.8658 13.2982L15.9672 13.2656L16.0686 13.2395V14.7849L15.5192 14.9434L14.9633 15.1L14.4216 15.2601L13.8722 15.4514V14.6761V14.2845V13.9101L13.9821 13.8681L14.0917 13.8349L14.1928 13.7924L14.3117 13.7597L14.2694 13.5509L14.2188 13.342C14.2188 13.275 14.1923 13.2006 14.1846 13.1332L14.1425 12.9424L13.8381 13.0416L13.5434 13.1416L13.239 13.2504L12.9427 13.358L12.9011 13.5929L12.8585 13.8255L12.8167 14.0592L12.7738 14.3009L12.8842 14.2589L12.9927 14.2174L13.0955 14.1842L13.2048 14.1511V15.6846L12.6809 15.8673L12.1567 16.0761L11.6333 16.2923L11.1006 16.5166ZM13.5434 9.92763L13.4505 10.4443L13.3573 10.9606L13.2562 11.4932L13.163 12.0182L13.3573 11.9438L13.5426 11.8772L13.7279 11.8107L13.9223 11.7436L13.8209 11.294L13.7282 10.8361L13.6371 10.3782L13.5434 9.92763Z" fill="white"/>
<path d="M10.7581 17.0285V15.7493V15.3577V14.7834L11.0649 14.62L11.2047 14.5636L11.3723 13.6415L11.888 10.9414L11.6214 11.0625V8.81921L12.6409 8.39917L13.4651 8.09451L14.2911 7.80943L15.5603 7.43115L15.5585 8.25402V9.65252L15.2371 9.72849L15.9281 12.9296L16.4104 12.8077V14.0086V15.0385L14.5278 15.5812L12.7966 16.1858L11.767 16.6035L10.7581 17.0285ZM11.4435 15.1982V15.358V15.7496V16.0039L12.0246 15.7632L12.5541 15.553L12.8636 15.4449V14.6294L12.3341 14.8309L12.6423 13.1097L13.7296 12.7239L14.3997 12.5049L14.527 13.0912C14.5291 13.1079 14.5334 13.1254 14.5373 13.1434C14.5494 13.1939 14.5577 13.2452 14.5622 13.2969L14.6504 13.6937L14.7131 14.0015L14.307 14.1114L14.2151 14.1501V14.9729L14.3237 14.9356L15.7269 14.5312V13.6992L15.4192 13.8081L14.4325 9.25101L14.8738 9.1304V8.34199L14.5032 8.45216L13.6473 8.74899L14.3234 11.9634L13.2867 12.3334L12.7201 12.5506L13.3902 8.84349L12.8933 9.02623L12.3066 9.26824V10.0253L12.7974 9.82299L12.0463 13.7642L11.808 15.0789L11.4435 15.1982ZM13.2467 13.6094L13.2128 13.7956L13.5305 13.699V13.6781L13.9136 13.5371L13.8776 13.3886L13.2467 13.6094Z" fill="white"/>
<path d="M1.02002 15.6154L1.76423 15.0617L2.50711 14.4955L3.25132 13.9428L4.00744 13.4468V15.8635L3.87507 15.9326L3.7554 16.017L3.62303 16.1135L3.51713 16.183L3.7419 17.2178C3.80729 17.5637 3.90075 17.9227 3.9537 18.2689L4.17926 19.305L4.41754 20.3688L4.61689 19.0147C4.68361 18.6002 4.78951 18.1034 4.84193 17.6742L5.05505 16.3618L5.28115 15.0213L5.14877 15.1043L5.00369 15.1873L4.88349 15.2844L4.75112 15.3669V14.7581V14.1514V13.5429V12.9487L5.41564 12.5065L6.0791 12.1057L6.75632 11.7053L7.42005 11.3179V12.5206V13.1421V13.7504L7.28767 13.8186L7.15344 13.9024L7.02107 13.971L6.9014 14.0543C6.95435 14.4135 7.04728 14.7722 7.1132 15.1176L7.3385 16.1822L7.5638 17.2458L7.78964 18.3234L8.00143 16.9978L8.21323 15.6846L8.42503 14.3856L8.65033 13.0735L8.51796 13.1419L8.38558 13.2119L8.26645 13.2664L8.13407 13.3356V12.7276V12.1057V11.4975V10.9033L8.87775 10.5167L9.6209 10.1298L10.3773 9.74287L11.1236 9.41211V10.006V10.6143V11.8575L10.9912 11.912L10.8853 11.9541L10.753 12.0227L10.6471 12.064L10.1673 14.6205L9.7035 17.1917L9.23754 19.7473L8.77212 22.3171L8.32204 22.5383L7.86959 22.7732L7.41952 23.0356L6.98083 23.2836L6.75579 22.2472L6.54399 21.2108C6.49104 20.8795 6.38515 20.5205 6.31764 20.1757C6.26469 19.8431 6.17282 19.4969 6.11987 19.1526L5.89351 20.4237L5.68171 21.7089L5.45667 22.9938L5.25388 24.2926L4.8038 24.5829L4.35082 24.8721L3.91239 25.1486L3.47477 25.4527L2.97016 23.4627L2.49361 21.5308L2.0025 19.5817L1.51219 17.6609L1.37981 17.7428L1.26068 17.8407L1.14154 17.9237L1.02108 18.0201V17.4123V16.8027V16.2088L1.02002 15.6154Z" fill="white"/>
<path d="M3.26552 26.0131L2.63966 23.5453L2.16311 21.61L1.30586 18.2275L0.679199 18.7295V17.4114V16.8034V16.2092V15.4477L1.55949 14.7927L2.29919 14.2288L3.06299 13.6626L4.35099 12.8146V16.0674L4.05606 16.2215L3.89933 16.3309L4.07724 17.1456C4.10372 17.2913 4.13522 17.4297 4.16567 17.5688C4.21094 17.7777 4.25807 17.9933 4.29169 18.2068L4.35841 18.5131C4.36105 18.4987 4.36343 18.4844 4.36635 18.47C4.4193 18.187 4.47225 17.8957 4.50322 17.6328L4.81668 15.7242L4.40818 15.9774V14.759V14.1518V13.5438V12.7697L5.22466 12.227L6.58097 11.4161L7.76307 10.7261V11.9132V12.5215V13.1425V13.956L7.45887 14.1126L7.27779 14.2207C7.30426 14.3669 7.33735 14.5144 7.36859 14.6582C7.39771 14.7922 7.42657 14.9248 7.45172 15.0556L7.74665 16.4478L8.20255 13.685L7.79484 13.8978V12.7287V12.1074V11.4984V10.7011L10.2395 9.4365L11.4661 8.89062V10.0072V10.616V12.0834L10.9504 12.3032L10.5043 14.6828L9.08019 22.5441L8.47471 22.8407L8.0294 23.0722L6.74352 23.8069L6.42027 22.3188L6.20688 21.2787C6.19046 21.1772 6.17034 21.0772 6.14784 20.9759L6.01732 21.7641L5.79175 23.0521L5.56963 24.4932L4.09763 25.4343L3.26552 26.0131ZM1.72998 17.1281L2.82604 21.4477L3.30259 23.3826L3.68647 24.8937L3.71586 24.8733L4.9382 24.093L5.11559 22.9443L5.34168 21.6526L5.55348 20.3705L6.1436 17.0597L6.45707 19.1036C6.48354 19.2699 6.51928 19.443 6.55476 19.61C6.59023 19.7771 6.62783 19.9533 6.65457 20.1259C6.68104 20.2564 6.71572 20.4029 6.75041 20.5483C6.79885 20.7498 6.84889 20.9582 6.88093 21.16L7.21663 22.7618L7.69529 22.4838L8.46598 22.0922L9.83128 14.5622L10.3454 11.8189L10.6102 11.7161L10.7812 11.6323V10.6155V10.0067V9.93643L10.5297 10.0484L8.48107 11.1096V11.4997V12.1087V12.7841L9.10825 12.4604L8.76752 14.4444L7.83667 20.2079L6.77926 15.1874C6.75279 15.0556 6.72631 14.9282 6.69825 14.7997C6.64901 14.5742 6.59844 14.3408 6.56323 14.1037L6.53278 13.8986L6.86133 13.6733L6.98153 13.6106L7.07763 13.5503V13.1425V12.5215V11.9111L6.25506 12.3962L5.59319 12.7951L5.09202 13.1289V14.1518V14.7397L5.74489 14.3332L5.18071 17.727C5.14815 17.9949 5.09282 18.2974 5.03934 18.5898C5.00942 18.7551 4.97977 18.9167 4.95568 19.067L4.48787 22.2436L3.6142 18.3194C3.58375 18.1228 3.53795 17.9134 3.49374 17.7111C3.46223 17.5662 3.43073 17.4216 3.40372 17.2793L3.13315 16.0283L3.66582 15.6662V14.0776L3.45085 14.2191L2.71432 14.7674L1.97488 15.331L1.3641 15.7855V16.2092V16.8036V17.3537L1.72998 17.1281Z" fill="white"/>
<path d="M45.126 18.1671C43.6132 16.3645 41.4762 15.8603 41.4764 14.2731C41.4764 13.6254 41.9442 13.4515 42.5524 13.8121C43.5976 14.4329 44.237 16.1773 44.4392 16.7391L44.9687 17.0714L45.4834 17.4181L45.9981 17.7637L46.5292 18.1104V16.1475V15.1816V14.2308L45.9997 13.8844L45.485 13.5387L44.9703 13.1923L44.4559 12.8756V13.0915V13.7403C43.847 12.8602 43.1772 11.7646 41.9914 11.0717C40.2133 10.1348 38.9346 11.2738 38.9343 13.5377C38.9343 16.0324 40.1193 17.3591 41.4603 18.4122C42.9429 19.6523 44.4392 20.3595 44.4392 21.6857C44.4392 22.3203 43.9865 22.4929 43.3784 22.1475C42.334 21.5413 41.7557 20.0556 41.3663 19.1474L40.8368 18.873L40.3073 18.5989L39.7921 18.325L39.2774 18.0655V22.2334L39.7744 22.4913L40.2896 22.7367L40.7892 22.9965L41.3033 23.2575V22.9829V22.7239V22.2187C41.7407 22.9254 42.3949 24.1804 43.8608 25.0171C45.7333 26.1563 46.9813 25.3055 46.9819 22.9698C46.9819 21.0816 46.2014 19.5087 45.126 18.1671Z" fill="#231F20"/>
<path d="M38.7615 15.4448L38.6511 15.3874L38.5418 15.3383L38.4407 15.2861V15.0279V14.7783V14.5288V14.2787C38.4407 13.4542 38.2802 13.2292 37.8233 12.8125C38.1624 12.7622 38.644 12.6713 38.644 11.6218C38.644 10.4732 38.0787 9.53857 37.1836 9.13889L36.8704 9.00496L36.2205 8.7392L35.5851 8.50425L34.9346 8.27086C34.7318 8.1962 34.511 8.12153 34.3008 8.06201V8.42097V8.78646V9.17022V9.54432L34.4109 9.57799L34.5208 9.61167L34.6312 9.64535L34.7403 9.67772V12.7687V13.8103L34.6315 13.7766L34.5205 13.7458L34.4109 13.7119L34.3008 13.6793V14.8123V15.2039L34.8329 15.3704L35.3735 15.562L35.9136 15.7448C36.0915 15.8126 36.2861 15.8784 36.4545 15.9536V15.1788V14.8036V14.4293L36.3534 14.3789L36.2607 14.3463L36.1593 14.3131L36.0659 14.2789V13.8962V12.771L36.1421 12.7956L36.2266 12.8295L36.3102 12.8634L36.3957 12.8961C37.0539 13.1715 37.1304 13.6793 37.1307 14.3792V14.8365V15.296V15.7615V16.228L37.5609 16.4032L38.0004 16.5953L38.4316 16.8042L38.8703 17.013V16.6214V16.2452V15.8703V15.4952L38.7615 15.4448ZM36.4553 11.6709L36.3539 11.6294L36.2615 11.5879L36.1593 11.5547L36.0667 11.5219V10.83V10.4961V10.1555L36.2104 10.2053L36.3544 10.263L36.5059 10.322L36.6578 10.3964C36.971 10.522 37.2496 10.7637 37.2493 11.2971C37.2496 11.9706 36.8275 11.8302 36.4553 11.6709V11.6709Z" fill="#231F20"/>
<path d="M31.4121 7.08892C29.9761 6.80463 28.9285 8.29659 28.9282 10.4459C28.9282 12.6453 29.9409 14.3777 31.4113 14.6607C32.8306 14.9871 33.8697 13.729 33.87 11.5129C33.8705 9.3471 32.8235 7.42204 31.4121 7.08892ZM31.4121 12.6701C30.778 12.5451 30.2631 11.6457 30.2631 10.6537C30.2631 9.58753 30.7703 8.9046 31.4126 9.03878C32.0043 9.17976 32.5272 10.0308 32.5272 11.1375C32.5264 12.1209 32.0202 12.8124 31.4116 12.6704L31.4121 12.6701Z" fill="#231F20"/>
<path d="M28.2951 8.24694L28.4039 8.26443L28.5316 8.27983L28.5313 7.90521L28.531 7.53111L28.5313 7.15544V6.79779L27.9568 6.72208L27.3908 6.66386L26.8242 6.62209L26.2672 6.57275V6.9385L26.2674 7.30607L26.2669 7.68043L26.2672 8.06341L26.3762 8.07176L26.4949 8.08064L26.6053 8.08873L26.7318 8.10518L26.731 9.1301L26.7315 10.1715L26.7307 11.2131V12.2545L26.6045 12.2372L26.4941 12.2294L26.376 12.2203L26.2666 12.2122V12.5957L26.2664 12.9875V13.3614L26.2661 13.7621L26.8234 13.8034L27.39 13.8537L27.9555 13.9041L28.5305 13.9696V13.5707V13.1953L28.5308 12.8037L28.5302 12.421L28.4032 12.4041L28.2943 12.3884L28.1673 12.3706L28.0571 12.3626L28.0574 11.3201L28.0571 10.2879L28.0577 9.2468L28.0571 8.22266L28.1681 8.23049L28.2951 8.24694Z" fill="#231F20"/>
<path d="M25.7161 12.2115L25.5985 12.2029H25.3867L25.2766 12.1943V11.9358V11.1787C25.2766 10.3457 25.1249 10.1867 24.669 9.98751C25.006 9.77866 25.4794 9.45337 25.4802 8.38798C25.4802 7.22182 24.9136 6.53863 24.0273 6.53027L23.7146 6.53837L23.0633 6.55455C22.8616 6.56291 22.6418 6.56317 22.43 6.58066L21.7875 6.63052L21.146 6.68874V8.17992L21.2564 8.16347L21.3745 8.15486L21.4756 8.14702L21.5945 8.13841V9.17169V10.2131V12.2955H21.4759L21.3745 12.3031L21.2561 12.3196L21.146 12.329V13.8692L21.6869 13.8194L22.2193 13.7776L22.7594 13.7444L23.3095 13.7358V12.5772V12.1943L23.2073 12.2026H22.9201V11.8194V11.4447V10.6775H23.241C23.8999 10.6613 23.9762 11.1359 23.9762 11.8523V13.7199H24.4072L24.8384 13.7288L25.2769 13.7366L25.7166 13.7525V12.2123L25.7161 12.2115ZM23.3069 9.41239L23.2047 9.421H23.0016H22.9177V8.04678H23.1959L23.349 8.03842H23.5004C23.8128 8.03007 24.0924 8.14729 24.0921 8.67985C24.0932 9.36226 23.6698 9.40325 23.3069 9.41239Z" fill="#231F20"/>
<path d="M20.7071 12.3945L20.5978 12.4029L20.4876 12.429V11.4109C20.4876 10.5778 20.3354 10.4361 19.8787 10.3035C20.2165 10.0442 20.6896 9.65367 20.6904 8.57914C20.6904 7.42003 20.1239 6.83003 19.2369 6.9543L18.9245 7.01252L18.2743 7.12869L17.6408 7.254L16.9977 7.41063L16.3562 7.56127V7.91918V8.2938V8.6679V9.04435L16.4658 9.01825L16.5844 8.99371L16.6861 8.9676L16.8039 8.93419V13.0853L16.6856 13.1114L16.5842 13.1357L16.4653 13.1618L16.356 13.1879V14.7183L16.896 14.5935L17.4295 14.4684L17.9696 14.3598L18.5195 14.2598V13.8607V13.4853V13.1015V12.7274L18.4181 12.7436L18.3167 12.7603L18.2155 12.7775L18.1308 12.7937V12.4102V12.0356V11.6526V11.2775L18.2071 11.2608L18.2828 11.2443L18.367 11.2279L18.4512 11.2195C19.1104 11.0945 19.1869 11.5612 19.1866 12.2695V14.1353L19.6182 14.0685L20.0487 14.0183L20.4884 13.9607L20.9266 13.9024V12.7444V12.3687L20.808 12.3778L20.7071 12.3945ZM18.5197 9.95337L18.4183 9.96981L18.3164 9.98626L18.2155 10.0027L18.1311 10.0194V9.67821V9.32787V8.64545L18.2664 8.61935L18.4093 8.59324L18.5626 8.56061L18.7141 8.53581C19.0262 8.47785 19.3053 8.55199 19.306 9.08586C19.305 9.7701 18.8824 9.88601 18.5197 9.95337V9.95337Z" fill="#231F20"/>
<path d="M16.0694 13.6177V13.2434L15.968 13.2695L15.8676 13.3021L15.7665 13.3282L15.6733 13.3614L15.4615 12.3873L15.251 11.4214L15.0469 10.4612L14.8351 9.49531L14.9286 9.47077L15.0207 9.43788L15.1131 9.41177L15.2153 9.38749V8.25449V7.8877L14.403 8.12944L13.5839 8.41217L12.7722 8.71213L11.9629 9.0455V9.41099V9.77804V10.5351L12.055 10.4931L12.1482 10.4607L12.2411 10.4192L12.3428 10.3774L12.131 11.4854L11.9192 12.5933L11.7074 13.7015L11.5067 14.8163L11.3968 14.8499L11.2957 14.892L11.1935 14.9327L11.1008 14.9831V15.3582V15.7498V16.125V16.5166L11.6335 16.292L12.1569 16.0759L12.6811 15.867L13.2051 15.6843V14.1513L13.0957 14.1845L12.993 14.2176L12.8844 14.2592L12.774 14.3012L12.8169 14.0594L12.859 13.8261L12.9016 13.5934L12.9432 13.3585L13.2395 13.2509L13.5439 13.1421L13.8386 13.0421L14.1431 12.9429L14.1851 13.1337C14.1939 13.2006 14.2196 13.275 14.2193 13.3426L14.2699 13.5514L14.3122 13.7603L14.1934 13.7929L14.0922 13.8355L13.9826 13.8686L13.8727 13.9106V14.2842V14.6758V15.4512L14.4216 15.2601L14.9625 15.1013L15.5184 14.9447L16.0678 14.7862V13.6177H16.0694ZM13.729 11.8107L13.5437 11.8772L13.3583 11.9438L13.164 12.0182L13.2572 11.4932L13.3583 10.9606L13.4515 10.4443L13.5445 9.92763L13.6382 10.3774L13.7303 10.8361L13.823 11.294L13.9244 11.7436L13.729 11.8107Z" fill="#231F20"/>
<path d="M11.1236 11.2363V10.6153V10.007V9.41309L10.3807 9.74411L9.62434 10.1307L8.88119 10.5176L8.13672 10.9043V11.4984V12.1067V12.728V13.3355L8.26909 13.2663L8.38823 13.2118L8.52061 13.1418L8.65298 13.0734L8.42794 14.386L8.21614 15.6851L8.00435 16.9982L7.79255 18.3239L7.56672 17.2462L7.34142 16.1827L7.11611 15.118C7.0494 14.7727 6.95727 14.4132 6.90432 14.0547L7.02398 13.9715L7.15636 13.9028L7.29006 13.819L7.42243 13.7509V13.1426V12.521V11.3183L6.7587 11.7057L6.08148 12.1062L5.41802 12.5069L4.7535 12.9492V13.5433V14.1519V14.7586V15.3668L4.88587 15.2843L5.00607 15.1872L5.15115 15.1042L5.28353 15.0212L5.05743 16.3617L4.84431 17.6741C4.79136 18.1033 4.68546 18.6001 4.61927 19.0146L4.41992 20.3688L4.18164 19.3049L3.9537 18.2688C3.90075 17.9226 3.80676 17.5639 3.7419 17.2178L3.5158 16.1824L3.6217 16.113L3.75408 16.0164L3.87348 15.9331L4.00585 15.8639V13.446L3.24973 13.9433L2.50711 14.4959L1.76423 15.0622L1.02002 15.6159V16.2093V16.8032V17.4115V18.0192L1.14048 17.9229L1.25962 17.8399L1.37875 17.742L1.51113 17.66L2.00144 19.5809L2.49255 21.53L2.9691 23.4618L3.47371 25.4519L3.91134 25.1477L4.35082 24.8726L4.80248 24.5828L5.25255 24.2925L5.4527 22.9943L5.67774 21.7093L5.88954 20.4241L6.1159 19.153C6.16885 19.4987 6.26204 19.8435 6.31366 20.1761C6.38117 20.521 6.48734 20.881 6.54002 21.2112L6.75182 22.2476L6.97686 23.284L7.41555 23.036L7.86562 22.7737L8.31807 22.5387L8.76814 22.3176L9.23251 19.7472L9.69847 17.1917L10.1673 14.621L10.6465 12.0649L10.7524 12.0237L10.8848 11.955L10.9907 11.913L11.1231 11.8584L11.1236 11.2363Z" fill="#231F20"/>
<path d="M23.9261 21.4473C29.6428 20.4761 33.7292 24.976 33.7292 24.976L36.3238 21.9644C28.2601 13.8606 19.4151 17.9752 19.4151 17.9752C18.2213 18.4806 17.2193 19.1157 16.38 19.8383L16.3694 19.8616C10.6429 24.7173 13.5835 33.955 13.5835 33.955C14.9017 40.2904 10.7891 43.6296 10.7891 43.6296H11.8253C17.1663 39.3346 15.6083 33.479 15.6083 33.479C14.0751 26.0686 19.7728 22.9661 20.4976 22.5847C20.4976 22.585 21.9302 21.7318 23.9261 21.4473Z" fill="#231F20"/>
<path d="M11.9414 43.9508H9.8811L10.5822 43.3814C10.5917 43.3736 11.5845 42.552 12.406 40.9925C13.16 39.5611 13.9206 37.1927 13.2678 34.0347C13.1963 33.8055 12.5222 31.5669 12.5034 28.7315C12.477 24.8482 13.7213 21.7152 16.1019 19.6651L16.1122 19.6424L16.1652 19.5962C17.0672 18.8195 18.1172 18.1747 19.2858 17.6797C19.3684 17.6413 21.5891 16.6253 24.8434 16.6094H24.9162C27.9152 16.6094 32.3447 17.5077 36.5555 21.7403L36.7639 21.9491L33.7362 25.4651L33.4869 25.1912C33.4471 25.1476 29.4465 20.8362 23.9824 21.7648H23.9734C22.0672 22.036 20.6807 22.8506 20.6669 22.8586L20.6521 22.8673C19.6125 23.4142 14.4999 26.4926 15.9272 33.4079C16.0002 33.7044 17.361 39.5921 12.0322 43.8764L11.9414 43.9508ZM11.5707 43.3083H11.71C16.7119 39.2068 15.3106 33.6164 15.2944 33.5601L15.2904 33.5431C13.7697 26.1919 19.2114 22.8996 20.3387 22.3049C20.471 22.2266 21.897 21.4126 23.8765 21.1302C28.9496 20.2705 32.7151 23.5199 33.7153 24.4979L35.8826 21.9825C31.8936 18.0872 27.7421 17.2521 24.9177 17.2521H24.8484C21.7371 17.2672 19.5767 18.2556 19.5553 18.2658C18.4619 18.7289 17.4876 19.3226 16.6489 20.0348L16.6377 20.0588L16.5824 20.1055C11.0873 24.7654 13.8658 33.7694 13.8947 33.8592L13.9029 33.8908C14.9357 38.8557 12.6816 42.074 11.5694 43.3089L11.5707 43.3083Z" fill="white"/>
<path d="M29.9047 24.1255L30.5779 23.2275C25.1268 20.1559 20.4804 23.0844 20.4804 23.0844C14.2991 26.6855 16.1121 33.5104 16.1121 33.5104L17.1009 33.2214C16.5693 30.6095 17.2473 28.7573 17.2473 28.7573C18.0458 26.4096 19.5191 25.1771 19.5191 25.1771C19.5191 25.1771 19.8323 24.8753 20.0055 25.0466C20.0055 25.0466 20.226 25.2985 19.9427 25.4726C15.8185 28.7012 17.9905 34.8186 17.9905 34.8186C19.3759 38.6074 17.5587 40.4591 17.5587 40.4591C23.5499 38.0881 25.7677 40.1288 25.7677 40.1288C29.798 43.2955 34.4684 44.3515 34.4684 44.3515L33.0194 33.2969L31.1882 33.2475C30.3968 33.2311 29.9648 32.5325 29.9648 32.5325C29.4117 31.6765 29.9319 31.507 29.9319 31.507H32.8937C32.4892 27.4428 31.2501 26.0509 31.2501 26.0509C29.0813 23.4993 25.9478 23.3178 25.9478 23.3178C25.9478 23.3178 25.5268 23.2841 25.5647 23.0074C25.5647 23.0074 25.548 22.7646 26.0012 22.7798C26.0012 22.779 28.0567 22.9803 29.9047 24.1255Z" fill="#231F20"/>
<path d="M34.8514 44.765L34.3952 44.6606C34.2017 44.617 29.6062 43.5519 25.5645 40.3763L25.5455 40.3596C25.5264 40.3427 23.3624 38.5043 17.6798 40.7533L16.2621 41.3143L17.3237 40.233C17.3907 40.1633 18.9749 38.4578 17.683 34.9251C17.6761 34.9058 17.4841 34.3508 17.3237 33.4893L15.8806 33.9122L15.7953 33.5911C15.7765 33.5204 13.995 26.4889 20.3138 22.8069C20.3522 22.7824 25.1809 19.816 30.7388 22.9479L31.0565 23.127L30.0279 24.502C30.5743 24.8856 31.0688 25.3362 31.4997 25.8431C31.5481 25.8974 32.8078 27.3538 33.2176 31.4736L33.2528 31.8263H30.0398C30.0332 31.8524 30.0115 32.0046 30.2395 32.3576C30.2455 32.367 30.5977 32.9116 31.1949 32.9241L33.3066 32.981L34.8514 44.765ZM25.9783 39.8811C29.1744 42.3894 32.8202 43.5621 34.0831 43.9161L32.7321 33.6078L31.1791 33.5658C30.2225 33.5462 29.7081 32.7304 29.6867 32.6972C29.4097 32.2686 29.3216 31.8984 29.4285 31.6026C29.4608 31.5102 29.5135 31.426 29.5829 31.3563C29.6523 31.2865 29.7366 31.2329 29.8296 31.1993L29.8794 31.1833H32.5314C32.112 27.5716 31.0154 26.2725 31.004 26.2592C28.9528 23.8462 25.9579 23.6382 25.928 23.6363C25.8587 23.6308 25.5365 23.5946 25.3551 23.3724C25.2662 23.2632 25.2245 23.1238 25.2392 22.9845C25.2451 22.8608 25.2971 22.7437 25.3853 22.6555C25.5235 22.5143 25.7356 22.449 26.0122 22.4569H26.0337C26.1165 22.4649 28.0031 22.6613 29.8196 23.6982L30.0952 23.3306C25.026 20.6832 20.7003 23.3262 20.6564 23.3539C18.1796 24.797 16.7188 26.92 16.3044 29.6697C16.1371 30.8093 16.155 31.9678 16.3574 33.1019L16.728 32.9935C16.2877 30.478 16.9133 28.7223 16.9422 28.6461C17.7341 26.3169 19.1616 25.0562 19.3006 24.9375C19.5709 24.6816 19.9625 24.5459 20.237 24.8166L20.2534 24.8338C20.2862 24.8714 20.448 25.0719 20.408 25.3317C20.3903 25.445 20.3286 25.6047 20.1337 25.7311C16.2584 28.7818 18.2768 34.651 18.2977 34.7095C19.2047 37.1896 18.7973 38.8846 18.3533 39.8182C23.643 37.996 25.7843 39.7114 25.9783 39.8811Z" fill="white"/>
<path d="M26.7627 24.5327C26.7627 24.5327 30.8623 25.6169 31.04 28.6494L29.4721 28.6199C29.4721 28.6199 29.7906 25.695 26.7627 24.5327Z" fill="white"/>
<path d="M31.3857 28.9771L29.1104 28.9346L29.1483 28.5858C29.1594 28.4769 29.3945 25.888 26.6443 24.832L26.8468 24.2227C26.8908 24.2341 27.9323 24.5137 29.0082 25.1821C30.4712 26.0903 31.2851 27.2828 31.3645 28.6307L31.3857 28.9771ZM29.8035 28.3049L30.674 28.3213C30.5033 27.357 29.8769 26.621 29.1692 26.0801C29.6892 26.946 29.7913 27.8316 29.8035 28.3049Z" fill="white"/>
<path d="M20.0031 26.7642C20.0031 26.7642 16.2926 34.1966 24.8424 38.22C24.8424 38.22 22.9778 37.4 19.8169 38.626C19.8169 38.626 20.4995 37.1982 19.4052 34.7195C19.4063 34.7195 17.197 30.0345 20.0031 26.7642Z" fill="white"/>
<path d="M19.1735 39.2213L19.5235 38.489C19.5285 38.4778 20.12 37.1406 19.1078 34.8477C19.0877 34.8052 18.5349 33.6208 18.3292 32.0082C18.0539 29.8495 18.5468 27.9643 19.7546 26.5567L21.4651 24.563L20.2955 26.906C20.2809 26.9355 18.8521 29.8737 19.9378 32.9483C20.6706 35.0234 22.3685 36.6994 24.9839 37.9301L24.7102 38.5133C24.694 38.5068 22.912 37.7711 19.9365 38.925L19.1735 39.2213ZM18.9249 31.4156C18.9362 31.578 18.9524 31.7427 18.9736 31.9098C19.1637 33.4255 19.6966 34.5726 19.7019 34.5838C20.4228 36.2167 20.4101 37.4265 20.2947 38.1133C21.4119 37.7479 22.3539 37.6312 23.0931 37.6286C21.212 36.4321 19.946 34.931 19.3199 33.1519C19.1227 32.5897 18.9902 32.0074 18.9249 31.4161V31.4156Z" fill="white"/>
<path d="M23.9261 21.4473C29.6428 20.4761 33.7292 24.976 33.7292 24.976L36.3238 21.9644C28.2601 13.8606 19.4151 17.9752 19.4151 17.9752C18.2213 18.4806 17.2193 19.1157 16.38 19.8383L16.3694 19.8616C10.6429 24.7173 13.5835 33.955 13.5835 33.955C14.9017 40.2904 10.7891 43.6296 10.7891 43.6296H11.8253C17.1663 39.3346 15.6083 33.479 15.6083 33.479C14.0751 26.0686 19.7728 22.9661 20.4976 22.5847C20.4976 22.585 21.9302 21.7318 23.9261 21.4473Z" fill="#231F20"/>
<path d="M29.9047 24.1255L30.5779 23.2275C25.1268 20.1559 20.4804 23.0844 20.4804 23.0844C14.2991 26.6855 16.1121 33.5104 16.1121 33.5104L17.1009 33.2214C16.5693 30.6095 17.2473 28.7573 17.2473 28.7573C18.0458 26.4096 19.5191 25.1771 19.5191 25.1771C19.5191 25.1771 19.8323 24.8753 20.0055 25.0466C20.0055 25.0466 20.226 25.2985 19.9427 25.4726C15.8185 28.7012 17.9905 34.8186 17.9905 34.8186C19.3759 38.6074 17.5587 40.4591 17.5587 40.4591C23.5499 38.0881 25.7677 40.1288 25.7677 40.1288C29.798 43.2955 34.4684 44.3515 34.4684 44.3515L33.0194 33.2969L31.1882 33.2475C30.3968 33.2311 29.9648 32.5325 29.9648 32.5325C29.4117 31.6765 29.9319 31.507 29.9319 31.507H32.8937C32.4892 27.4428 31.2501 26.0509 31.2501 26.0509C29.0813 23.4993 25.9478 23.3178 25.9478 23.3178C25.9478 23.3178 25.5268 23.2841 25.5647 23.0074C25.5647 23.0074 25.548 22.7646 26.0012 22.7798C26.0012 22.779 28.0567 22.9803 29.9047 24.1255Z" fill="#231F20"/>
<path d="M26.7627 24.5327C26.7627 24.5327 30.8623 25.6169 31.04 28.6494L29.4721 28.6199C29.4721 28.6199 29.7906 25.695 26.7627 24.5327Z" fill="white"/>
<path d="M20.0031 26.7642C20.0031 26.7642 16.2926 34.1966 24.8424 38.22C24.8424 38.22 22.9778 37.4 19.8169 38.626C19.8169 38.626 20.4995 37.1982 19.4052 34.7195C19.4063 34.7195 17.197 30.0345 20.0031 26.7642Z" fill="white"/>
<path d="M11.0754 2.97351L11.6748 2.7926L12.7293 4.33077L12.7693 2.45374L13.2488 2.30885L14.3491 3.84128V1.98436L14.9336 1.80762L14.8505 4.59496L14.3639 4.74194L13.2803 3.2753L13.2162 5.08889L12.7277 5.23535L11.0754 2.97351Z" fill="#231F20"/>
<path d="M16.3851 1.49565L16.9127 1.38574L18.5807 3.73529L17.9826 3.86008L17.6212 3.33456L16.5225 3.56456L16.4081 4.1911L15.8257 4.31276L16.3851 1.49565ZM17.3117 2.87927L16.7878 2.11958L16.6207 3.02338L17.3117 2.87927Z" fill="#231F20"/>
<path d="M19.3886 1.51693L18.587 1.62501L18.5139 1.09819L20.697 0.803711L20.7698 1.33079L19.9684 1.43887L20.2557 3.50961L19.6759 3.58793L19.3886 1.51693Z" fill="#231F20"/>
<path d="M21.9114 0.694858L23.916 0.588867L23.9425 1.10055L22.5195 1.17652L22.5486 1.70777L23.8009 1.64094L23.8289 2.15341L22.577 2.22024L22.6071 2.77029L24.049 2.69328L24.077 3.20574L22.0546 3.31382L21.9114 0.694858Z" fill="#231F20"/>
<path d="M25.2397 0.575195L26.4546 0.615921C26.7927 0.627407 27.0514 0.729743 27.22 0.907787C27.363 1.05868 27.4358 1.26727 27.4271 1.51449V1.52206C27.4122 1.94498 27.1716 2.20291 26.8293 2.31517L27.4461 3.273L26.7628 3.25003L26.2222 2.39218L25.7629 2.37678L25.734 3.21557L25.1492 3.19572L25.2397 0.575195ZM26.3728 1.88755C26.6574 1.89721 26.8258 1.75284 26.8335 1.53198V1.52441C26.842 1.27745 26.672 1.14431 26.3871 1.13465L25.8047 1.11507L25.7782 1.86771L26.3728 1.88755Z" fill="#231F20"/>
<path d="M28.8428 0.768066L29.4236 0.83803L29.165 2.92077L30.4813 3.0795L30.4167 3.60031L28.5195 3.37136L28.8428 0.768066Z" fill="#231F20"/>
<path d="M31.4876 2.44227L31.4892 2.43496C31.648 1.70608 32.3605 1.23408 33.1624 1.4022C33.9643 1.57033 34.4117 2.28302 34.2532 3.01191L34.2518 3.01895C34.093 3.74758 33.3803 4.22114 32.5784 4.05145C31.7764 3.88176 31.3288 3.17037 31.4876 2.44227ZM33.6522 2.89991L33.6538 2.8926C33.7494 2.45324 33.5023 2.01805 33.0419 1.92067C32.5815 1.8233 32.1842 2.11464 32.0888 2.55401L32.087 2.56132C31.9917 3.00068 32.2387 3.43587 32.6994 3.53325C33.16 3.63062 33.5561 3.33902 33.6517 2.89965L33.6522 2.89991Z" fill="#231F20"/>
<path d="M35.2185 3.2826L35.2209 3.27556C35.4515 2.56599 36.2082 2.16396 36.9894 2.41092C37.7707 2.65789 38.1448 3.40922 37.9139 4.11878L37.9115 4.12583C37.681 4.83566 36.9243 5.23743 36.143 4.99073C35.3618 4.74402 34.9879 3.99243 35.2185 3.2826ZM37.327 3.94909L37.3294 3.94204C37.4684 3.5139 37.2661 3.05679 36.8176 2.91503C36.3691 2.77327 35.944 3.02468 35.8055 3.45256L35.8031 3.4596C35.6641 3.88748 35.8664 4.34486 36.3149 4.48662C36.7633 4.62837 37.188 4.37697 37.327 3.94909Z" fill="#231F20"/>
</g>
<defs>
<clipPath id="clip0">
<rect width="47.2258" height="44.85" fill="white" transform="translate(0.387207 0.575195)"/>
</clipPath>
</defs>
</svg>
